<svg width="512" height="512" xmlns="http://www.w3.org/2000/svg">

 <g>
  <title>background</title>
  <rect fill="none" id="canvas_background" height="514" width="514" y="-1" x="-1"/>
 </g>
 <g>
  <title>Layer 1</title>
  <g id="svg_12">
   <path id="svg_1" d="m150.20531,125.219l292.07942,0c12.89823,0 23.36635,10.65267 23.36635,23.77828l0,297.22846c0,13.12561 -10.46813,23.77828 -23.36635,23.77828l-163.56448,0l-128.51495,-344.78502z" fill="#CFD8DC"/>
   <path id="svg_7" d="m383.46541,325.75224l-50.93865,0l-11.77664,35.66742l-32.75963,0l55.65865,-154.5588l28.55368,0l55.98578,154.5588l-32.77131,0l-11.95189,-35.66742zm-43.55488,-23.77828l36.22953,0l-18.21407,-56.0454l-18.01546,56.0454z" fill="#34495e"/>
   <path id="svg_5" d="m361.79345,386.78005l-292.07942,0c-12.89823,0 -23.36635,-10.65267 -23.36635,-23.77828l0,-297.22846c0,-13.12561 10.46813,-23.77828 23.36635,-23.77828l163.56448,0l128.51495,344.78502z" fill="#2196F3"/>
   <path id="svg_6" d="m280.01121,470.00402l-35.04953,-83.22397l116.83177,0l-81.78224,83.22397z" fill="#34495e"/>
   <path id="svg_10" d="m180.37066,341.02013l3.42223,6.60529l-3.42223,-6.60529zm-47.77342,-131.1392l55.13378,0l0,26.85078l-55.13378,0l0,-26.85078z" fill="#ffffff"/>
   <path id="svg_4" d="m106.97395,164.85819l29.82113,0l0,140.03733l-29.82113,0l0,-140.03733z" fill="#ffffff"/>
   <path id="svg_3" d="m197.83315,283.08293l7.22284,7.29818l-7.22284,-7.29818zm-100.82886,-144.89565l116.36337,0l0,29.66741l-116.36337,0l0,-29.66741z" fill="#ffffff"/>
  </g>
 </g>
</svg>